<svg width="148" height="50" viewBox="0 0 148 50" fill="none" xmlns="http://www.w3.org/2000/svg">
<g clip-path="url(#clip0_36_217)">
<path d="M6.03733 0H141.963C145.279 0 147.973 2.69 147.973 6V44C147.973 47.31 145.279 50 141.963 50H6.03733C2.72182 50 0.0273438 47.31 0.0273438 44V6C0.0273438 2.69 2.72182 0 6.03733 0Z" fill="white"/>
<path d="M18.0773 23.9996C18.0773 23.9996 7.87038 18.3496 7.26938 18.0196C6.66838 17.6896 6.06738 17.8896 6.06738 18.5796V42.9296C6.06738 43.4496 6.4981 43.6696 7.01896 43.3896C7.53983 43.0996 18.0773 37.2696 18.0773 37.2696C18.0773 37.2696 19.5097 36.4796 20.2209 36.0796C21.3728 35.4396 23.6766 34.1696 23.6766 34.1696C23.6766 34.1696 28.4345 31.5396 29.0656 31.1896C29.6966 30.8396 29.6365 30.3596 29.1056 30.0896C28.5748 29.8196 23.6866 27.0896 23.6866 27.0896L18.0773 23.9996Z" fill="url(#paint0_linear_36_217)"/>
<path d="M19.9602 30.5994L6.53794 17.8994C6.22743 17.9694 6.03711 18.2094 6.03711 18.5994V42.8994C6.03711 43.2294 6.16733 43.4294 6.33761 43.4994L19.9602 30.5994Z" fill="url(#paint1_linear_36_217)"/>
<mask id="mask0_36_217" style="mask-type:alpha" maskUnits="userSpaceOnUse" x="6" y="17" width="14" height="27">
<path d="M19.9602 30.5994L6.53794 17.8994C6.22743 17.9694 6.03711 18.2094 6.03711 18.5994V42.8994C6.03711 43.2294 6.16733 43.4294 6.33761 43.4994L19.9602 30.5994Z" fill="white"/>
</mask>
<g mask="url(#mask0_36_217)">
</g>
<mask id="mask1_36_217" style="mask-type:alpha" maskUnits="userSpaceOnUse" x="6" y="30" width="18" height="14">
<path d="M6.88685 43.4296L14.6498 39.1696C16.5629 38.1096 18.0754 37.2696 18.0754 37.2696L23.7148 34.2396L19.9586 30.5996L6.33594 43.4996C6.48619 43.5496 6.75664 43.5196 6.96699 43.4196" fill="white"/>
</mask>
<g mask="url(#mask1_36_217)">
<path d="M18.0551 23.9993C18.0351 24.0493 7.82814 18.3893 7.23715 18.0993C6.63615 17.7193 6.03516 17.9293 6.03516 18.5993V42.9993C6.03516 43.5393 6.46587 43.7593 6.93665 43.4993C7.5076 43.1793 18.0351 37.3493 18.0551 37.2993L23.6644 34.1993C23.6344 34.2393 28.3823 31.6093 28.9733 31.2993C29.6544 30.9093 29.5843 30.4293 29.0734 30.1993C28.5225 29.8793 23.6344 27.1493 23.6644 27.0993L18.0551 23.9993Z" fill="url(#paint2_linear_36_217)"/>
</g>
<path d="M7.24757 18.01C6.98713 17.88 6.73672 17.84 6.52637 17.89L19.9587 30.61L23.6749 27.1L18.0756 24C18.0756 24 12.7968 21.08 9.61149 19.32L7.24757 18.01Z" fill="url(#paint3_linear_36_217)"/>
<mask id="mask2_36_217" style="mask-type:alpha" maskUnits="userSpaceOnUse" x="6" y="17" width="18" height="14">
<path d="M7.24757 18.01C6.98713 17.88 6.73672 17.84 6.52637 17.89L19.9587 30.61L23.6749 27.1L18.0756 24C18.0756 24 12.7968 21.08 9.61149 19.32L7.24757 18.01Z" fill="white"/>
</mask>
<g mask="url(#mask2_36_217)">
</g>
<path d="M101.356 34.8896L100.244 35.9396C99.9839 36.0796 99.7335 36.2496 99.4831 36.3596C98.7118 36.7096 97.9305 36.7996 97.2293 36.7996C96.4881 36.7996 95.3262 36.7496 94.1442 35.8896C92.5015 34.7296 91.7803 32.7196 91.7803 30.9796C91.7803 27.3696 94.7051 25.5996 97.0991 25.5996C97.9305 25.5996 98.7919 25.8096 99.4831 26.2496C100.645 27.0196 100.946 28.0196 101.106 28.5596L95.6567 30.7696L93.8738 30.9096C94.4547 33.8696 96.448 35.5896 98.6517 35.5896C99.7535 35.5896 100.565 35.2296 101.316 34.8596C101.316 34.8596 101.466 34.7796 101.356 34.8896ZM98.0307 28.9496C98.4714 28.7896 98.6918 28.6496 98.6918 28.3196C98.6918 27.3796 97.6601 26.2996 96.418 26.2996C95.5065 26.2996 93.7836 27.0296 93.7836 29.5596C93.7836 29.9596 93.8337 30.3796 93.8537 30.7996L98.0307 28.9496Z" fill="#191F2B"/>
<path d="M89.9773 34.7596C89.9773 35.6596 90.1376 35.7996 90.8989 35.8696C91.2995 35.9196 91.6902 35.9396 92.0808 35.9796L91.2294 36.4896H87.1527C87.6835 35.7896 87.7837 35.7196 87.7837 35.2596V34.7396L87.7737 20.9396H85.9707L87.7036 20.0996H91.009C90.2878 20.5196 90.0775 20.7696 89.9873 21.5796L89.9773 34.7596Z" fill="#191F2B"/>
<path d="M83.6563 26.7394C84.1872 27.1794 85.289 28.1094 85.289 29.8694C85.289 31.5894 84.3274 32.3994 83.3558 33.1694C83.0553 33.4694 82.7047 33.7994 82.7047 34.3094C82.7047 34.8194 83.0553 35.0994 83.3057 35.3094L84.1371 35.9594C85.1488 36.8194 86.0703 37.6094 86.0703 39.2094C86.0703 41.3894 83.9668 43.5994 80.0002 43.5994C76.6547 43.5994 75.042 41.9994 75.042 40.2794C75.042 39.4394 75.4527 38.2594 76.825 37.4494C78.2573 36.5694 80.1905 36.4494 81.2323 36.3794C80.9117 35.9594 80.5411 35.5194 80.5411 34.7994C80.5411 34.4094 80.6613 34.1694 80.7715 33.8894C80.5211 33.9094 80.2606 33.9394 80.0303 33.9394C77.5862 33.9394 76.2039 32.0994 76.2039 30.2894C76.2039 29.2194 76.6847 28.0394 77.6864 27.1794C78.9986 26.0894 80.5712 25.8994 81.8132 25.8994H86.5711L85.0887 26.7394H83.6563ZM82.0336 37.0294C81.8433 36.9994 81.7331 36.9994 81.5027 36.9994C81.2924 36.9994 80.0303 37.0494 79.0587 37.3794C78.5478 37.5694 77.0553 38.1394 77.0553 39.8194C77.0553 41.4994 78.658 42.7094 81.1521 42.7094C83.3858 42.7094 84.5678 41.6194 84.5678 40.1594C84.5678 38.9394 83.7965 38.2994 82.0336 37.0294ZM82.6847 32.5494C83.2155 32.0194 83.2656 31.2794 83.2656 30.8594C83.2656 29.1894 82.284 26.5994 80.3708 26.5994C79.7799 26.5994 79.1288 26.8994 78.7582 27.3694C78.3675 27.8494 78.2573 28.4794 78.2573 29.0794C78.2573 30.6294 79.1588 33.1994 81.1321 33.1994C81.703 33.1994 82.3241 32.9194 82.6847 32.5494Z" fill="#191F2B"/>
<path d="M69.2722 36.7996C65.5961 36.7996 63.6328 33.8996 63.6328 31.2796C63.6328 28.2196 66.1069 25.5996 69.6228 25.5996C73.0184 25.5996 75.1519 28.2896 75.1519 31.1196C75.1519 33.8796 73.0484 36.7996 69.2722 36.7996ZM72.1469 34.9096C72.7079 34.1596 72.8481 33.2196 72.8481 32.3096C72.8481 30.2396 71.8765 26.2996 68.9917 26.2996C68.2304 26.2996 67.4592 26.5996 66.8982 27.0996C65.9967 27.9196 65.8265 28.9496 65.8265 29.9596C65.8265 32.2796 66.9583 36.0996 69.773 36.0996C70.6945 36.0996 71.6161 35.6596 72.1469 34.9096Z" fill="#191F2B"/>
<path d="M56.9519 36.7996C53.2758 36.7996 51.3125 33.8996 51.3125 31.2796C51.3125 28.2196 53.7866 25.5996 57.3024 25.5996C60.6981 25.5996 62.8316 28.2896 62.8316 31.1196C62.8316 33.8796 60.7281 36.7996 56.9519 36.7996ZM59.8266 34.9096C60.3876 34.1596 60.5278 33.2196 60.5278 32.3096C60.5278 30.2396 59.5462 26.2996 56.6714 26.2996C55.9001 26.2996 55.1389 26.5996 54.5779 27.0996C53.6664 27.9196 53.5061 28.9496 53.5061 29.9596C53.5061 32.2796 54.648 36.0996 57.4527 36.0996C58.3742 36.0996 59.2958 35.6596 59.8266 34.9096Z" fill="#191F2B"/>
<path d="M49.7901 36.1096L46.6749 36.8296C45.4128 37.0296 44.2809 37.2096 43.0789 37.2096C37.069 37.1996 34.7852 32.7596 34.7852 29.2796C34.7852 25.0396 38.0306 21.0996 43.5798 21.0996C44.7517 21.0996 45.8836 21.2696 46.9153 21.5596C48.548 22.0196 49.3093 22.5896 49.7901 22.9196L47.9771 24.6496L47.2158 24.8196L47.7567 23.9496C47.0155 23.2296 45.6632 21.8896 43.099 21.8896C39.6633 21.8896 37.069 24.5096 37.069 28.3396C37.069 32.4496 40.0239 36.3196 44.7718 36.3196C46.1641 36.3196 46.8853 36.0396 47.5364 35.7796V32.2496L44.2509 32.4296L45.9938 31.4896H50.6115L50.0505 32.0396C49.9003 32.1696 49.8803 32.2096 49.8302 32.3896C49.8101 32.5896 49.7901 33.2196 49.7901 33.4496V36.1096Z" fill="#191F2B"/>
<path d="M108.077 34.9896V40.8996H106.905V25.8696H108.077V27.5796C108.838 26.4696 110.241 25.5996 111.853 25.5996C114.758 25.5996 116.722 27.8096 116.722 31.2996C116.722 34.7696 114.768 37.0196 111.853 37.0196C110.331 37.0196 108.959 36.2296 108.077 34.9896ZM115.52 31.3896C115.52 28.7296 114.147 26.6996 111.703 26.6996C110.191 26.6996 108.738 27.8996 108.107 28.9496V33.8096C108.738 34.8596 110.191 36.0996 111.703 36.0996C114.147 36.0996 115.52 34.0496 115.52 31.3896Z" fill="#191F2B"/>
<path d="M118.324 21.6992H119.526V36.7992H118.324V21.6992Z" fill="#191F2B"/>
<path d="M132.597 39.8598C132.848 39.9698 133.278 40.0398 133.549 40.0398C134.27 40.0398 134.761 39.7498 135.212 38.7098L136.063 36.7698L131.445 25.7998H132.757L136.714 35.3098L140.641 25.7998H141.963L136.333 39.0698C135.752 40.4398 134.831 41.0998 133.569 41.0998C133.188 41.0998 132.687 41.0298 132.397 40.9398L132.597 39.8598Z" fill="#191F2B"/>
<path d="M129.283 36.7896C129.202 36.4096 129.142 36.0796 129.102 35.7996C129.062 35.5196 129.042 35.2396 129.042 34.9496C128.641 35.5396 128.071 36.0396 127.329 36.4296C126.598 36.8196 125.897 37.0096 124.945 37.0096C123.793 37.0096 122.902 36.7296 122.271 36.1496C121.64 35.5796 121.319 34.7996 121.319 33.8196C121.319 32.8396 121.78 32.0396 122.702 31.4296C123.623 30.8196 124.815 30.5096 126.288 30.5096H129.032V29.1496C129.032 28.3696 128.762 27.7496 128.231 27.3096C127.7 26.8596 126.949 26.6396 125.977 26.6396C125.086 26.6396 124.364 26.8496 123.813 27.2496C123.273 27.6596 122.992 28.1696 122.992 28.7796H121.79L121.77 28.7196C121.73 27.8896 122.101 27.1696 122.912 26.5396C123.713 25.9096 124.755 25.5996 126.047 25.5996C127.329 25.5996 128.371 25.9096 129.152 26.5296C129.934 27.1396 130.324 28.0296 130.324 29.1796V34.5796C130.324 34.9696 130.344 35.3396 130.394 35.7096C130.444 36.0796 130.525 36.4396 130.625 36.7896H129.283ZM125.096 35.9996C126.097 35.9996 126.818 35.7696 127.55 35.3296C128.281 34.8896 128.772 34.3096 129.032 33.6096V31.4996H126.268C125.216 31.4996 124.344 31.7296 123.653 32.2096C122.962 32.6796 122.621 33.2496 122.621 33.9196C122.621 34.5496 122.842 35.0496 123.283 35.4296C123.733 35.8096 124.334 35.9996 125.096 35.9996Z" fill="#191F2B"/>
<path d="M34.3848 11.5302C34.3848 9.38023 36.1076 7.99023 38.2512 7.99023C39.6836 7.99023 40.6251 8.63023 41.2161 9.41023L40.1644 9.97023C39.7637 9.46023 39.0726 9.06023 38.2512 9.06023C36.7988 9.06023 35.707 10.0902 35.707 11.5302C35.717 12.9602 36.7988 14.0002 38.2512 14.0002C39.0024 14.0002 39.6635 13.6802 39.9941 13.3802V12.3302H37.7904V11.2702H41.2762V13.8202C40.555 14.5702 39.5233 15.0702 38.2512 15.0702C36.1076 15.0802 34.3848 13.6802 34.3848 11.5302Z" fill="#191F2B"/>
<path d="M42.9492 14.9806V8.10059H48.0677V9.16059H44.2614V10.9306H47.9876V12.0006H44.2614V13.9206H48.0677V14.9806H42.9492Z" fill="#191F2B"/>
<path d="M51.543 14.9806V9.16059H49.3193V8.10059H55.0589V9.16059H52.8352V14.9806H51.543Z" fill="#191F2B"/>
<path d="M59.6572 8.10059H60.9093V14.9806H59.6572V8.10059Z" fill="#191F2B"/>
<path d="M64.4952 14.9806V9.16059H62.2715V8.10059H68.011V9.16059H65.7873V14.9806H64.4952Z" fill="#191F2B"/>
<path d="M72.2979 11.54C72.2979 9.5 73.8705 8 76.1142 8C78.3379 8 79.9205 9.5 79.9205 11.54C79.9205 13.58 78.3279 15.08 76.1142 15.08C73.8705 15.08 72.2979 13.58 72.2979 11.54ZM78.5583 11.48C78.5583 10.08 77.5967 9.03 76.1042 9.03C74.6017 9.03 73.6501 10.08 73.6501 11.48C73.6501 12.87 74.6017 13.93 76.1042 13.93C77.5967 13.93 78.5583 12.88 78.5583 11.48Z" fill="#191F2B"/>
<path d="M86.5016 14.9806L82.6652 10.0606V14.9806H81.373V8.10059H82.6952L86.4515 12.8706V8.10059H87.7437V14.9806H86.5016Z" fill="#191F2B"/>
</g>
<defs>
<linearGradient id="paint0_linear_36_217" x1="11.6041" y1="25.9606" x2="20.0909" y2="38.4356" gradientUnits="userSpaceOnUse">
<stop stop-color="#FF177B"/>
<stop offset="1" stop-color="#FFEC73"/>
</linearGradient>
<linearGradient id="paint1_linear_36_217" x1="15.2245" y1="8.51302" x2="-0.0125021" y2="40.9238" gradientUnits="userSpaceOnUse">
<stop stop-color="#064AA2"/>
<stop offset="1" stop-color="#63FFD4"/>
</linearGradient>
<linearGradient id="paint2_linear_36_217" x1="19.8493" y1="23.0544" x2="1.06193" y2="34.3122" gradientUnits="userSpaceOnUse">
<stop stop-color="#FF4521"/>
<stop offset="1" stop-color="#8A33DB"/>
</linearGradient>
<linearGradient id="paint3_linear_36_217" x1="9.06623" y1="13.8141" x2="15.7789" y2="31.2915" gradientUnits="userSpaceOnUse">
<stop stop-color="#00A3B5"/>
<stop offset="1" stop-color="#D6FFA1"/>
</linearGradient>
<clipPath id="clip0_36_217">
<rect width="148" height="50" fill="white"/>
</clipPath>
</defs>
</svg>
